<svg viewBox="0 0 130 18" xmlns="http://www.w3.org/2000/svg" xmlns:xlink="http://www.w3.org/1999/xlink" width="130.000000" height="18.000000" fill="none">
	<g id="WebGAL Craft">
		<path id="path-0" d="M3 1.00391L0.527344 1.00391L3.62109 15.6992C3.74462 16.2979 3.98661 16.7145 4.34707 16.9491C4.57933 17.1002 4.86078 17.1758 5.19141 17.1758C5.50778 17.1758 5.78152 17.1056 6.01262 16.9652C6.41499 16.7208 6.68812 16.2637 6.83203 15.5938L8.87109 5.9375L10.875 15.6289C11.0045 16.2619 11.259 16.7006 11.6387 16.945C11.8775 17.0989 12.166 17.1758 12.5039 17.1758C12.7977 17.1758 13.0572 17.1136 13.2824 16.9893C13.7578 16.7269 14.0804 16.1875 14.25 15.3711L17.2617 1.00391L14.707 1.00391L12.5273 12.9453L10.5469 2.52734C10.3935 1.7444 10.0914 1.22653 9.64064 0.973753C9.42573 0.85323 9.17703 0.792969 8.89453 0.792969C8.55754 0.792969 8.26976 0.869588 8.03119 1.02283C7.63927 1.27457 7.38017 1.73311 7.25391 2.39844L5.20312 12.9453L3 1.00391Z" fill="currentColor" fill-rule="evenodd" />
		<path id="path-1" d="M17.8833 10.9381C17.8283 11.2388 17.8008 11.5446 17.8008 11.8555C17.8008 12.5708 17.9265 13.2345 18.178 13.8465C18.4622 14.5379 18.9067 15.1632 19.5117 15.7227C20.093 16.2595 20.7259 16.644 21.4105 16.8759C21.9312 17.0524 22.4819 17.1406 23.0625 17.1406C23.1894 17.1406 23.3158 17.1358 23.4419 17.1261C24.0226 17.0814 24.5953 16.9339 25.1602 16.6836C25.6911 16.4476 26.1618 16.1449 26.5725 15.7753C26.7057 15.6554 26.8326 15.5285 26.9531 15.3945C27.3828 14.918 27.7188 14.3477 27.9609 13.6836L25.4531 13.6836C25.1186 14.0985 24.7348 14.401 24.3017 14.5911C23.9356 14.7517 23.5342 14.832 23.0977 14.832C22.7538 14.832 22.4278 14.7796 22.1197 14.6746C21.8608 14.5864 21.6145 14.4611 21.3809 14.2988C21.1344 14.1276 20.9237 13.9288 20.7489 13.7023C20.5606 13.4586 20.4139 13.1828 20.3086 12.875L25.5352 12.875C26.1133 12.875 26.5234 12.8496 26.7656 12.7988C27.0078 12.748 27.2422 12.6367 27.4688 12.4648C27.6389 12.3335 27.7765 12.1823 27.8816 12.0111C28.0517 11.7341 28.1367 11.4049 28.1367 11.0234C28.1367 10.5781 28.0137 10.0957 27.7676 9.57617C27.7063 9.44681 27.6398 9.32048 27.5681 9.19718C27.3519 8.82527 27.0883 8.4809 26.7773 8.16406C26.2944 7.67374 25.7603 7.29998 25.175 7.04279C24.5293 6.75905 23.8212 6.61719 23.0508 6.61719C22.3486 6.61719 21.6956 6.73905 21.0918 6.98279C20.567 7.19463 20.0794 7.49855 19.6289 7.89453C19.3068 8.17748 19.0247 8.48894 18.7826 8.82889C18.5902 9.09904 18.4231 9.3872 18.2812 9.69336C18.0937 10.0982 17.961 10.5131 17.8833 10.9381ZM25.8164 10.7891L20.3438 10.7891C20.5181 10.3672 20.7563 10.0121 21.0582 9.72391C21.1757 9.61182 21.3027 9.50984 21.4395 9.41797C21.5975 9.31174 21.7628 9.2227 21.9352 9.15086C22.2953 9.00081 22.6867 8.92578 23.1094 8.92578C23.4991 8.92578 23.8629 8.99184 24.201 9.12395C24.4051 9.20373 24.5998 9.30759 24.7852 9.43555C25.0369 9.6094 25.2499 9.8124 25.424 10.0445C25.5902 10.2661 25.721 10.5143 25.8164 10.7891Z" fill="currentColor" fill-rule="evenodd" />
		<path id="path-2" d="M29.8008 1.00391L29.8008 10.9062C29.8008 11.8359 29.8359 12.5078 29.9062 12.9219C30.0239 13.6153 30.2569 14.2352 30.6051 14.7817C30.9043 15.2511 31.2885 15.6663 31.7578 16.0273C32.3079 16.4454 32.8926 16.7457 33.5121 16.9283C33.9924 17.0698 34.4936 17.1406 35.0156 17.1406C35.3552 17.1406 35.6884 17.1086 36.0154 17.0447C36.4634 16.957 36.8997 16.8093 37.3242 16.6016C37.7718 16.3856 38.1751 16.1193 38.5339 15.8027C38.889 15.4894 39.2006 15.1268 39.4688 14.7148C39.7896 14.2226 40.0202 13.7069 40.1605 13.1676C40.2697 12.7484 40.3242 12.3149 40.3242 11.8672C40.3242 11.6888 40.3148 11.5114 40.2961 11.3351C40.2318 10.7312 40.0576 10.1391 39.7734 9.55859C39.5243 9.043 39.2108 8.5897 38.8328 8.19868C38.7011 8.06239 38.5615 7.93366 38.4141 7.8125C37.8549 7.35254 37.2554 7.02532 36.6155 6.83085C36.1468 6.68841 35.6565 6.61719 35.1445 6.61719C34.8987 6.61719 34.6561 6.63671 34.4167 6.67575C33.6287 6.80421 32.8753 7.14407 32.1562 7.69531L32.1562 1.00391L29.8008 1.00391ZM32.467 13.3896C32.2052 12.934 32.0742 12.403 32.0742 11.7969C32.0742 11.3806 32.1504 10.9975 32.3028 10.6475C32.4221 10.3736 32.5881 10.12 32.8008 9.88672C33.0622 9.59704 33.3556 9.37285 33.6809 9.21416C34.075 9.02191 34.516 8.92578 35.0039 8.92578C35.5616 8.93661 36.0555 9.06189 36.4856 9.30162C36.6761 9.4078 36.8541 9.53642 37.0195 9.6875C37.3305 9.97543 37.5651 10.2973 37.7232 10.6532C37.8869 11.0215 37.9688 11.4261 37.9688 11.8672C37.9688 12.3257 37.8813 12.7436 37.7063 13.1209C37.5741 13.4058 37.3921 13.6676 37.1602 13.9062C36.8754 14.2023 36.5591 14.4273 36.2114 14.5814C35.8342 14.7485 35.42 14.832 34.9688 14.832C34.6426 14.832 34.3333 14.7825 34.0408 14.6833C33.7027 14.5687 33.387 14.3878 33.0938 14.1406C32.836 13.9184 32.627 13.6681 32.467 13.3896Z" fill="currentColor" fill-rule="evenodd" />
		<path id="path-3" d="M42.0271 6.46344C41.7747 7.26806 41.6484 8.11228 41.6484 8.99609C41.6484 10.1814 41.8635 11.2743 42.2935 12.2748C42.7252 13.2789 43.3734 14.1899 44.2383 15.0078C45.1088 15.8361 46.0616 16.4404 47.0968 16.8206C47.9753 17.1433 48.9131 17.3047 49.9102 17.3047C50.5089 17.3047 51.0936 17.2413 51.6642 17.1145C52.2178 16.9915 52.7581 16.8088 53.2852 16.5664C54.194 16.1517 54.9872 15.6173 55.6648 14.9631C55.9191 14.7175 56.1572 14.4551 56.3789 14.1758C56.8711 13.5664 57.2773 12.8633 57.5977 12.0664C57.918 11.2695 58.0781 10.5742 58.0781 9.98047C58.0781 9.42161 57.9385 9.00732 57.6592 8.73758C57.634 8.71319 57.6076 8.68999 57.5801 8.66797C57.248 8.40234 56.7031 8.26953 55.9453 8.26953L49.9336 8.26953L49.9336 10.7305L55.3594 10.7305C55.0848 11.5972 54.672 12.3416 54.1211 12.9635C53.8725 13.2441 53.5958 13.4997 53.291 13.7305C52.8703 14.0489 52.4233 14.2991 51.9501 14.4809C51.3205 14.7228 50.6444 14.8438 49.9219 14.8438C49.2243 14.8438 48.5703 14.7285 47.9598 14.4981C47.189 14.2071 46.4876 13.7325 45.8555 13.0742C45.2307 12.423 44.7818 11.7099 44.5089 10.9348C44.2972 10.3337 44.1914 9.69523 44.1914 9.01953C44.1914 8.81511 44.2019 8.61177 44.2229 8.40953C44.2814 7.84659 44.4213 7.29212 44.6426 6.74609C44.9021 6.10566 45.2475 5.54086 45.6786 5.05167C45.7471 4.97394 45.8178 4.89813 45.8906 4.82422C46.4039 4.29985 46.9722 3.8994 47.5954 3.62289C48.2908 3.3144 49.0545 3.16016 49.8867 3.16016C50.7742 3.16016 51.584 3.32866 52.3164 3.66567C53.2603 4.10005 54.0754 4.81435 54.7617 5.80859L56.8594 4.46094C56.5 3.8125 55.9414 3.18359 55.1836 2.57422C54.3458 1.90064 53.4491 1.40854 52.4934 1.09793C51.6755 0.832123 50.8144 0.699219 49.9102 0.699219C49.5392 0.699219 49.1716 0.72405 48.8074 0.773712C47.9981 0.884071 47.2055 1.11705 46.4297 1.47266C45.5413 1.88305 44.7674 2.41059 44.108 3.05527C43.6252 3.5274 43.2037 4.06237 42.8438 4.66016C42.4954 5.23736 42.2232 5.83845 42.0271 6.46344Z" fill="currentColor" fill-rule="evenodd" />
		<path id="path-4" d="M62.7539 2.33984L58.418 17L61.0312 17L61.875 13.9766L67.2773 13.9766L68.168 17L70.7812 17L66.4219 2.375C66.1952 1.60334 65.8381 1.09818 65.3506 0.859517C65.1323 0.752651 64.8878 0.699219 64.6172 0.699219C64.2992 0.699219 64.0167 0.765398 63.7696 0.897756C63.3065 1.14588 62.9679 1.62658 62.7539 2.33984ZM66.5742 11.5156L62.5547 11.5156L64.5117 4.48438L66.5742 11.5156Z" fill="currentColor" fill-rule="evenodd" />
		<path id="path-5" d="M72.9141 1.00391L72.9141 14.5156C72.9141 15.4531 73.0957 16.1016 73.459 16.4609C73.8223 16.8203 74.4766 17 75.4219 17L80.2266 17L80.2266 14.5391L75.457 14.5391L75.457 1.00391L72.9141 1.00391Z" fill="currentColor" fill-rule="evenodd" />
		<path id="path-6" />
		<path id="path-7" d="M88.0649 5.54868C87.5737 6.59853 87.3281 7.76329 87.3281 9.04297C87.3281 10.1523 87.5234 11.1797 87.9141 12.125C88.1361 12.6647 88.4104 13.1678 88.7369 13.6342C89.1573 14.2348 89.6642 14.7746 90.2578 15.2539C91.0708 15.9097 91.9402 16.3737 92.8659 16.646C93.2746 16.7662 93.6943 16.8491 94.125 16.8945C94.6875 16.957 95.6406 16.9922 96.9844 17L96.9844 14.5391L96.2695 14.5391C95.1992 14.5391 94.3633 14.4453 93.7617 14.2578C93.1667 14.0755 92.6301 13.8123 92.1517 13.468C91.5433 13.0302 91.0292 12.4615 90.6094 11.7617C90.426 11.4561 90.2768 11.1386 90.1617 10.8091C89.968 10.2542 89.8711 9.66551 89.8711 9.04297C89.8711 8.27109 90.0058 7.55405 90.2753 6.89185C90.4314 6.50848 90.6326 6.14349 90.8789 5.79688C91.2614 5.26135 91.7072 4.81713 92.2163 4.46423C92.695 4.1324 93.2297 3.88131 93.8203 3.71094C94.3281 3.5625 95.207 3.48828 96.457 3.48828L96.9844 3.48828L96.9844 1.00391C95.8047 1.00391 94.9258 1.02734 94.3477 1.07422C93.741 1.12241 93.1585 1.24158 92.6002 1.43174C91.6199 1.76561 90.7141 2.31832 89.8828 3.08984C89.0943 3.82406 88.4884 4.64367 88.0649 5.54868Z" fill="currentColor" fill-rule="evenodd" />
		<path id="path-8" d="M98.8594 10.9766L98.8594 17L101.215 17L101.215 11.6094C101.215 10.6406 101.371 9.9707 101.684 9.59961C101.996 9.22852 102.586 9.01953 103.453 8.97266L103.453 6.6875C103.188 6.67188 103 6.66406 102.891 6.66406C101.876 6.66406 101.037 6.90536 100.373 7.38797C100.245 7.48138 100.123 7.58383 100.008 7.69531C99.9622 7.7395 99.918 7.78493 99.8751 7.83161C99.198 8.56898 98.8594 9.6173 98.8594 10.9766Z" fill="currentColor" fill-rule="evenodd" />
		<path id="path-9" d="M104.285 10.5902C104.176 11.0095 104.121 11.4429 104.121 11.8906C104.121 12.1426 104.139 12.3918 104.176 12.6384C104.256 13.1714 104.421 13.6917 104.672 14.1992C104.906 14.6785 105.197 15.1046 105.545 15.4776C105.697 15.6396 105.859 15.7916 106.031 15.9336C106.598 16.4041 107.206 16.737 107.855 16.9324C108.316 17.0712 108.798 17.1406 109.301 17.1406C109.547 17.1406 109.789 17.1211 110.029 17.0821C110.817 16.9536 111.57 16.6137 112.289 16.0625L112.289 17L114.645 17L114.645 12.8516C114.645 11.9219 114.609 11.25 114.539 10.8359C114.421 10.1425 114.188 9.52262 113.84 8.97616C113.541 8.50671 113.157 8.09148 112.688 7.73047C112.137 7.31243 111.553 7.01212 110.933 6.82954C110.453 6.68797 109.952 6.61719 109.43 6.61719C109.09 6.61719 108.757 6.64918 108.43 6.71316C107.982 6.80081 107.546 6.94851 107.121 7.15625C106.673 7.37221 106.27 7.63849 105.911 7.95509C105.556 8.26843 105.245 8.63105 104.977 9.04297C104.656 9.53521 104.425 10.0509 104.285 10.5902ZM106.745 13.1604C106.566 12.7791 106.477 12.3558 106.477 11.8906C106.477 11.4322 106.564 11.0143 106.739 10.6369C106.871 10.352 107.053 10.0902 107.285 9.85156C107.57 9.55553 107.886 9.3305 108.234 9.17646C108.611 9.00934 109.025 8.92578 109.477 8.92578C109.93 8.93552 110.343 9.02882 110.717 9.20567C110.943 9.31241 111.155 9.44958 111.352 9.61719C111.621 9.85299 111.838 10.1184 112.001 10.4133C112.248 10.861 112.371 11.3769 112.371 11.9609C112.371 12.3665 112.299 12.7418 112.154 13.0867C112.034 13.3729 111.864 13.6383 111.645 13.8828C111.389 14.162 111.104 14.3797 110.788 14.5357C110.388 14.7332 109.939 14.832 109.441 14.832C108.975 14.832 108.549 14.7433 108.165 14.5658C107.899 14.4431 107.653 14.2779 107.426 14.0703C107.129 13.7996 106.902 13.4962 106.745 13.1604Z" fill="currentColor" fill-rule="evenodd" />
		<path id="path-10" d="M115.711 6.75781L115.711 9.01953L117.363 9.01953L117.363 17L119.719 17L119.719 9.01953L121.793 9.01953L121.793 6.75781L119.719 6.75781L119.719 5.09375C119.719 4.40625 119.85 3.93359 120.111 3.67578C120.373 3.41797 120.848 3.28906 121.535 3.28906L121.793 3.28906L121.793 1.00391C120.84 1.00391 120.092 1.10742 119.549 1.31445C119.519 1.32575 119.49 1.33751 119.461 1.34972C118.954 1.56138 118.505 1.91095 118.113 2.39844C117.962 2.58746 117.836 2.78833 117.734 3.00106C117.647 3.184 117.578 3.3757 117.527 3.57617C117.418 4.00977 117.363 4.60547 117.363 5.36328L117.363 6.75781L115.711 6.75781Z" fill="currentColor" fill-rule="evenodd" />
		<path id="path-11" d="M122.484 6.75781L122.484 9.01953L124.23 9.01953L124.23 12.6406C124.23 14.0962 124.594 15.1914 125.322 15.9264C125.352 15.9568 125.383 15.9865 125.414 16.0156C125.836 16.3906 126.289 16.6484 126.773 16.7891C127.258 16.9297 127.914 17 128.742 17L128.742 14.7266C127.914 14.7188 127.348 14.5645 127.043 14.2637C126.738 13.9629 126.586 13.4102 126.586 12.6055L126.586 9.01953L128.742 9.01953L128.742 6.75781L126.586 6.75781L126.586 3.16016L124.23 3.16016L124.23 6.75781L122.484 6.75781Z" fill="currentColor" fill-rule="evenodd" />
	</g>
</svg>
